<svg id="Capa_1" data-name="Capa 1" xmlns="http://www.w3.org/2000/svg" viewBox="0 0 64 64"><defs><style>.cls-1{fill:#dbff00;}.cls-2{fill:#02251d;}</style></defs><title>favicon</title><rect class="cls-1" width="64" height="64"/><path class="cls-2" d="M45.54,29.82a6.83,6.83,0,0,0-3.09-3.06,10.53,10.53,0,0,0-4.64-1,11.47,11.47,0,0,0-3.29.46,10.45,10.45,0,0,0-2.7,1.25,11.27,11.27,0,0,0-2.42,1.86h0v8.18a6.33,6.33,0,0,1,.71-3A5.38,5.38,0,0,1,35,31.66a6.79,6.79,0,0,1,1.93.25,3.36,3.36,0,0,1,1.46.84,3.86,3.86,0,0,1,.89,1.48,6.59,6.59,0,0,1,.31,2.17V53.23h7.09V35.28A11.77,11.77,0,0,0,45.54,29.82Z"/><path class="cls-2" d="M29.4,43.63H22.31v1.64a2.6,2.6,0,0,1-.61,1.87,2.38,2.38,0,0,1-1.79.63H17.36v4.64a7,7,0,0,0,1.43.44c.58.12,1.17.21,1.76.28a13.86,13.86,0,0,0,1.61.1,8,8,0,0,0,4.31-1,5.74,5.74,0,0,0,2.24-2.68,9.75,9.75,0,0,0,.69-3.73"/><rect class="cls-2" x="22.31" y="10.77" width="7.09" height="6.12"/><rect class="cls-2" x="22.31" y="21.94" width="7.09" height="21.69"/></svg>